# xmcd
# 
# Track frame offsets:
#     150
#     14806
#     25981
#     37038
#     49221
#     59296
#     73131
#     95023
#     111328
#     120948
#     136926
#     148921
#     165323
#     177466
#     193948
#     203868
#     221068
#     233086
#     244081
#     259286
# 
# Disc length: 3654
# 
# Revision: 1
# Processed by: cddbd v1.5.2PL0 Copyright (c) Steve Scherf et al.
# Submitted via: BonkEnc v1.0rc2
# 
DISCID=390e4414
DTITLE=Various Artist - Forro
DYEAR=0
DGENRE=
TTITLE0=Elba Ramalho - Bate Coração
TTITLE1=Dominguinhos - Baião
TTITLE2=Jackson do Pandeiro e Almira - Na Base da Chinela
TTITLE3=Alceu Valença - Vem Morena
TTITLE4=Genival Lacerda - Procurando Tu
TTITLE5=Guentae! - Sapatilha 37
TTITLE6=Forroçacana - Um a Um - Sebastiana - Dezessete na Corrente
TTITLE7=Rionegro e Solimoes - Esperando na Janela
TTITLE8=Jackson do Pandeiro e Almira - Como Tem Zé na Paraiba
TTITLE9=Banda Eva - Meu Amor
TTITLE10=Elba Ramalho - No Som da Sanfona
TTITLE11=Genival Lacerda e Falcao - Forró Cheiroso
TTITLE12=Dominguinhos - O Cheiro de Carolina
TTITLE13=Geraldo Nunes - A Velha Debaixo da Cama
TTITLE14=Geraldo Azevedo - Moça Bonita
TTITLE15=Capital do Sol - Voltando no Tempo
TTITLE16=Roberta Miranda - Atração Fatal
TTITLE17=Nando Cordel e Patricia Marx - Sabiá
TTITLE18=Moraes Moreira - Forró do ABC
TTITLE19=Coletanea Millenium - Fede Mais é Gostoso
EXTD=
EXTT0=
EXTT1=
EXTT2=
EXTT3=
EXTT4=
EXTT5=
EXTT6=
EXTT7=
EXTT8=
EXTT9=
EXTT10=
EXTT11=
EXTT12=
EXTT13=
EXTT14=
EXTT15=
EXTT16=
EXTT17=
EXTT18=
EXTT19=
PLAYORDER=
